PathFileType	4	(X/Y/Z)	/Users/mathieubourgeois/Desktop/Analyse/Traitement/Sujet_01/Transformed_Static_Sujet_01_Tpose.trc
DataRate	CameraRate	NumFrames	NumMarkers	Units	OrigDataRate	OrigDataStartFrame	OrigNumFrames
120.000000	120.000000	4	35	mm	120.000000	113	226
Frame#	Time	LFHD			RFHD			LBHD			RBHD			RSHO			LSHO			CLAV			STRN			T10			RHUM			LHUM			LRAD			RRAD			RWRA			RWRB			RCAR			LCAR			LWRA			LWRB			RFWT			LFWT			LBWT			RBWT			RKNI			LKNI			RKNE			LKNE			RANE			RANI			LANI			LANE			LHEE			RHEE			RTOE			LTOE			
		X1	Y1	Z1	X2	Y2	Z2	X3	Y3	Z3	X4	Y4	Z4	X5	Y5	Z5	X6	Y6	Z6	X7	Y7	Z7	X8	Y8	Z8	X9	Y9	Z9	X10	Y10	Z10	X11	Y11	Z11	X12	Y12	Z12	X13	Y13	Z13	X14	Y14	Z14	X15	Y15	Z15	X16	Y16	Z16	X17	Y17	Z17	X18	Y18	Z18	X19	Y19	Z19	X20	Y20	Z20	X21	Y21	Z21	X22	Y22	Z22	X23	Y23	Z23	X24	Y24	Z24	X25	Y25	Z25	X26	Y26	Z26	X27	Y27	Z27	X28	Y28	Z28	X29	Y29	Z29	X30	Y30	Z30	X31	Y31	Z31	X32	Y32	Z32	X33	Y33	Z33	X34	Y34	Z34	X35	Y35	Z35	

114	0.9416666666666667	1.187250137329085	1565.147094726562	134.1309051513671	28.11013603210446	1552.377563476562	256.3361511230468	-150.3406219482422	1567.731811523438	165.2879028320311	-118.1796798706055	1553.881713867188	295.1626892089843	-118.476188659668	1409.159423828125	346.9229736328124	-144.5100860595703	1399.662841796875	98.62883758544912	-58.92197418212893	1364.84326171875	195.4237365722655	-18.25912666320803	1264.230102539062	206.1076354980468	-227.1448059082032	1212.130249023438	240.2524871826171	-105.1137313842774	1234.943725585938	590.5567626953124	-136.8331604003906	1241.292114257812	-159.7187347412111	-182.3778991699218	1279.847900390625	-177.6388092041017	-156.9482574462891	1270.878295898438	605.5636596679686	-165.6285400390626	1282.469360351562	827.5979614257811	-159.1326904296876	1221.02587890625	823.2403564453124	-209.6394500732423	1216.145874023438	900.7518920898436	-222.3142089843749	1237.671508789062	-474.6419677734376	-179.3180389404296	1288.90283203125	-401.1274108886719	-188.7025299072265	1223.233520507812	-391.7995300292969	-42.9615859985352	930.516357421875	344.2016601562499	-47.22086334228517	943.4075317382812	118.3490753173828	-230.7469635009766	946.7260131835938	186.1321258544921	-222.6807250976563	956.115234375	303.1723327636718	-179.7203521728516	435.19189453125	273.5749206542969	-149.3245391845703	473.6610107421875	214.1034698486328	-161.3774871826172	470.3043823242188	390.5712890624999	-168.3845062255859	458.8736572265625	86.39346313476558	-189.1746520996094	120.6619644165039	379.4075317382812	-175.4729156494141	123.7953262329102	300.8681640625	-178.4649963378907	123.8237380981445	190.4339599609375	-193.892578125	113.2060317993164	115.465087890625	-251.90771484375	63.90821075439454	163.314453125	-248.9127960205078	74.98269653320314	345.3748168945312	-1.73170900344853	61.79221343994143	354.8062744140625	0.6295586824416953	57.00415802001954	131.6461029052734	
115	0.95	1.267065644264205	1565.177490234375	134.2386016845702	28.08401679992673	1552.438598632812	256.483917236328	-150.2613220214844	1567.75	165.2010650634764	-118.2409591674805	1553.921875	295.1818542480468	-118.178939819336	1408.842529296875	346.8444519042968	-144.3845672607422	1399.707885742188	98.69237518310537	-58.87172317504885	1364.817504882812	195.4960937499999	-18.22528648376467	1264.203002929688	206.1141510009765	-227.0679321289063	1212.149047851562	240.2878265380858	-104.8299942016602	1234.790283203125	590.5322875976561	-136.6991882324218	1241.266845703125	-159.6411132812501	-182.2464294433593	1279.838623046875	-177.5461730957032	-156.6854705810548	1270.761962890625	605.5792846679686	-165.1358642578126	1282.287231445312	827.6331176757811	-158.6136779785157	1220.874755859375	823.2803344726561	-209.138885498047	1215.975952148438	900.8039550781249	-221.9549407958984	1237.620849609375	-474.6123962402344	-179.0584564208984	1288.880004882812	-401.0516052246094	-188.4688873291015	1223.192504882812	-391.7069091796876	-42.87158203125004	930.5113525390625	344.1362609863281	-47.23165130615236	943.4132690429688	118.2946319580078	-230.727294921875	946.7366943359375	186.146743774414	-222.610580444336	956.1170043945312	303.1972656249999	-179.6937255859375	435.1911010742188	273.5704650878906	-149.3116607666016	473.6651611328125	214.0934143066406	-161.3377685546876	470.2963562011719	390.5549621582031	-168.4051208496094	458.8734741210938	86.3785018920898	-189.1694030761719	120.6529769897461	379.3958740234375	-175.4749755859375	123.7963104248047	300.8759765625	-178.4643249511719	123.8351821899414	190.4384307861328	-193.9069366455078	113.2074966430664	115.4747924804687	-251.9037322998047	63.91072845458985	163.3016815185547	-248.910629272461	74.9967498779297	345.3765869140624	-1.717358231544538	61.79551696777346	354.7921142578125	0.6247154474258262	56.98955917358399	131.6437530517578	
116	0.9583333333333334	1.365016698837264	1565.211181640625	134.3445739746093	28.05345916748044	1552.499755859375	256.6344604492186	-150.2058258056641	1567.750854492188	165.1504974365233	-118.3020782470704	1553.938110351562	295.1699829101561	-118.0695190429688	1408.8134765625	346.8885192871093	-144.2608032226562	1399.74365234375	98.76560974121084	-58.77687835693362	1364.803344726562	195.5227050781249	-18.17649078369143	1264.1845703125	206.1279907226562	-226.989486694336	1212.172973632812	240.3158111572264	-104.5571594238282	1234.65576171875	590.4895019531249	-136.5316162109375	1241.231323242188	-159.5266418457032	-182.1137542724609	1279.819213867188	-177.4648895263673	-156.421600341797	1270.636962890625	605.5847778320311	-164.6049652099611	1282.09619140625	827.6687011718749	-158.1281127929689	1220.691772460938	823.2848510742186	-208.521697998047	1215.78369140625	900.9012451171874	-221.5967559814453	1237.579345703125	-474.5785217285157	-178.7792968749999	1288.8359375	-400.9823608398438	-188.1654663085937	1223.155029296875	-391.6345825195313	-42.78106689453129	930.498779296875	344.0765380859374	-47.22573852539064	943.3904418945312	118.2520904541015	-230.7018432617188	946.7560424804688	186.1460571289062	-222.5406494140625	956.13037109375	303.1991577148437	-179.6382751464844	435.2035522460938	273.5635070800781	-149.2875366210938	473.6728210449219	214.0827636718749	-161.2961730957032	470.3087158203125	390.5447998046874	-168.4219512939453	458.8778991699219	86.37889862060543	-189.1578979492188	120.6551895141602	379.3918762207031	-175.46337890625	123.797737121582	300.8809204101562	-178.4469299316407	123.8342056274414	190.4363708496093	-193.8812255859375	113.2080383300781	115.4783630371093	-251.9031829833985	63.91733932495118	163.304214477539	-248.9061584472657	75.00905609130861	345.3821716308593	-1.719464540481611	61.79199218750002	354.7871398925781	0.6322659850120383	56.99412918090821	131.6305694580078	
117	0.9666666666666667	1.456841945648177	1565.249389648438	134.4590454101562	28.00947189331051	1552.578979492188	256.7804260253905	-150.1793975830078	1567.735107421875	165.1362152099608	-118.3774795532227	1553.996215820312	295.1763916015624	-117.9498672485352	1408.778442382812	346.9215698242186	-144.1415405273438	1399.792846679688	98.82917785644521	-58.6968460083008	1364.80078125	195.5680694580077	-18.11194229125979	1264.155883789062	206.1369323730468	-226.9104919433594	1212.177490234375	240.3456268310546	-104.3033828735352	1234.513671875	590.4577026367186	-136.3720703125	1241.214599609375	-159.3892211914064	-181.9642181396484	1279.775268554688	-177.3551330566407	-156.1208801269532	1270.49462890625	605.6155395507811	-164.1012725830079	1281.926513671875	827.7055664062499	-157.6674194335939	1220.499389648438	823.2585449218749	-207.8956451416017	1215.594482421875	900.9739990234374	-221.3503875732421	1237.557739257812	-474.4968261718751	-178.5000457763671	1288.767700195312	-400.9233398437501	-187.9497680664062	1223.123901367188	-391.5379943847657	-42.71142578125004	930.4832153320312	344.0195007324218	-47.21618270874025	943.3970336914062	118.1881408691406	-230.6681823730469	946.7797241210938	186.1598815917968	-222.4692993164063	956.1392211914062	303.2088317871093	-179.6489562988282	435.2052612304688	273.5657653808594	-149.2706451416016	473.6834411621094	214.0643005371093	-161.2594909667969	470.3039855957031	390.5392761230468	-168.4427947998047	458.8814392089844	86.35833740234371	-189.1635284423829	120.6629180908203	379.3921508789062	-175.4542541503907	123.8113479614258	300.8707885742188	-178.4451904296875	123.8498458862305	190.4346160888672	-193.8968658447266	113.2026977539062	115.4765014648437	-251.8976745605469	63.91981887817384	163.3063507080078	-248.906494140625	75.00364685058595	345.3822326660156	-1.714414358139082	61.79073715209963	354.794677734375	0.6351947188377219	57.0060157775879	131.6403656005859	
